<svg xmlns="http://www.w3.org/2000/svg" width="160" height="160" viewBox="0 0 160 160">
  <defs>
    <radialGradient id="portal" cx="0.5" cy="0.5" r="0.62">
      <stop offset="0%" stop-color="#eaffff" stop-opacity="0.92"/>
      <stop offset="45%" stop-color="#58c5ff" stop-opacity="0.64"/>
      <stop offset="100%" stop-color="#7d6bff" stop-opacity="0"/>
    </radialGradient>
    <linearGradient id="ring" x1="0" y1="0" x2="1" y2="1">
      <stop offset="0%" stop-color="#67e1ff"/>
      <stop offset="100%" stop-color="#7d6bff"/>
    </linearGradient>
  </defs>
  <circle cx="80" cy="80" r="70" fill="url(#portal)" opacity="0.85"/>
  <circle cx="80" cy="80" r="54" fill="none" stroke="url(#ring)" stroke-width="10"/>
  <circle cx="80" cy="80" r="35" fill="none" stroke="#ffffff" stroke-width="5" opacity="0.55"/>
  <path d="M80 20 l8 20 20 8 -20 8 -8 20 -8 -20 -20 -8 20 -8z" fill="#ffffff" opacity="0.82"/>
  <path d="M118 108 l5 13 13 5 -13 5 -5 13 -5 -13 -13 -5 13 -5z" fill="#ffcc55" opacity="0.9"/>
  <path d="M42 112 l4 10 10 4 -10 4 -4 10 -4 -10 -10 -4 10 -4z" fill="#ffffff" opacity="0.78"/>
</svg>
